<svg width="1440" height="900" viewBox="0 0 1440 900" fill="none" xmlns="http://www.w3.org/2000/svg">
<rect width="1440" height="900" fill="white"/>
<path d="M867.704 813.445C878.464 813.445 888.927 812.965 899.094 812.005C967.734 805.675 1022 778.615 1058.09 740.835C1077.19 721.144 1091.62 697.427 1100.34 671.425C1108.56 646.809 1110.96 620.623 1107.34 594.925C1082.4 417.785 872.944 503.925 960.754 396.185C1048.56 288.445 876.664 151.415 810.704 183.845C744.744 216.275 817.484 285.635 654.484 252.845C491.484 220.055 525.214 364.125 525.214 364.125" stroke="#CCDDE2" stroke-width="4.82" stroke-miterlimit="10"/>
<path d="M428.853 660.564C428.853 660.564 354.203 607.034 325.383 666.234C325.383 666.234 355.693 558.814 459.073 520.394C459.073 520.394 488.623 503.954 489.923 513.884C491.223 523.814 499.793 528.884 503.543 528.764C507.293 528.644 538.953 530.624 540.053 525.894C541.153 521.164 539.053 506.994 554.753 506.894C570.453 506.794 655.643 527.724 680.003 549.844C680.003 549.844 637.603 601.034 660.273 657.474L641.173 652.844C641.173 652.844 652.953 754.844 636.893 814.174H359.493C359.493 814.174 387.223 817.664 415.663 797.374L456.963 744.374C456.963 744.374 475.073 716.934 512.073 713.014C512.073 713.014 533.133 710.714 532.933 700.704C532.733 690.694 540.523 707.114 550.933 692.644C552.203 692.644 577.503 694.104 577.503 694.104C577.503 694.104 596.503 695.884 600.073 678.924C603.643 661.964 616.803 542.924 612.073 535.774C607.343 528.624 605.533 528.534 565.613 528.774C525.693 529.014 490.613 521.054 485.533 540.914C480.453 560.774 474.583 636.024 474.583 636.024C474.583 636.024 452.083 641.914 434.943 666.284C435.003 666.274 428.853 678.154 428.853 660.564Z" fill="#2E2E2E"/>
<path d="M428.854 624.413V671.273" stroke="black" stroke-width="4.82" stroke-miterlimit="10"/>
<path d="M639.893 647.845C683.943 671.245 805.683 719.055 810.003 535.165C810.003 535.165 804.763 486.875 818.423 480.575C832.083 474.275 854.113 454.325 825.743 406.025L844.253 387.555C846.754 384.981 848.13 381.519 848.079 377.93C848.027 374.342 846.552 370.921 843.978 368.42C841.404 365.919 837.942 364.543 834.354 364.594C830.765 364.646 827.344 366.121 824.843 368.695L788.053 407.695C788.053 407.695 782.723 397.695 773.273 402.905C763.823 408.115 729.163 430.225 744.903 476.395L703.963 593.995" stroke="black" stroke-width="4.82" stroke-miterlimit="10"/>
<path d="M788.004 407.671C788.004 407.671 797.814 422.601 776.934 437.861" stroke="black" stroke-width="4.82" stroke-miterlimit="10"/>
<path d="M831.783 417.624C831.783 417.624 837.893 436.814 813.243 449.194C804.523 453.574 794.953 444.354 799.073 435.504C799.143 435.374 799.203 435.234 799.273 435.094" stroke="black" stroke-width="4.82" stroke-miterlimit="10"/>
<path d="M839.244 441.323C839.244 441.323 833.854 460.063 819.104 460.963C806.054 461.753 808.244 448.443 808.244 448.443" stroke="black" stroke-width="4.82" stroke-miterlimit="10"/>
<path d="M586.903 429.585C585.903 429.845 585.273 429.015 584.343 429.175C570.973 426.735 561.033 416.175 559.913 411.095C560.293 413.865 565.373 413.585 564.513 416.415C564.353 416.955 564.033 416.745 563.773 417.265C563.353 418.265 563.363 416.895 562.773 417.795C559.493 412.945 557.593 410.535 557.013 407.865C557.407 410.731 557.175 413.648 556.333 416.415C556.179 416.956 555.975 417.482 555.723 417.985C553.723 422.705 549.553 426.695 542.583 427.685C540.836 427.906 539.071 427.963 537.313 427.855C532.313 427.565 527.993 427.275 524.313 427.115C512.013 426.565 507.603 427.495 508.983 435.435C509.744 439.026 510.822 442.544 512.203 445.945C514.643 452.365 516.343 463.485 513.843 475.595V475.665C510.943 489.765 501.763 500.665 482.093 510.905C478.608 512.704 475.015 514.283 471.333 515.635C437.203 528.295 355.563 560.365 321.723 677.965C318.124 690.495 315.434 701.895 313.534 712.305L312.604 711.765C289.494 697.915 274.424 666.845 279.004 640.115C281.284 626.845 289.924 617.585 301.004 610.615C308.784 605.795 317.104 601.845 324.073 595.895C347.173 576.165 328.703 545.485 341.493 521.895C355.913 495.355 378.493 478.995 407.973 477.645C415.393 477.965 423.743 478.835 431.843 478.445C443.603 478.865 455.623 477.905 464.233 470.195C471.013 464.195 472.423 454.415 474.993 446.255C477.887 437.053 480.3 427.707 482.223 418.255C483.982 409.293 487.263 400.699 491.923 392.845C496.954 384.334 504.049 377.228 512.553 372.185C519.971 367.998 528.242 365.546 536.743 365.015C544.485 365.471 552.016 367.717 558.743 371.575C561.04 372.933 563.212 374.492 565.233 376.235C580.123 388.935 587.253 410.435 586.903 429.585Z" fill="#3FBDF1"/>
<path d="M812.824 459.843C812.824 459.843 808.054 465.763 810.664 471.383C813.274 477.003 819.754 478.313 826.054 475.853" stroke="black" stroke-width="4.82" stroke-miterlimit="10"/>
<path d="M825.723 406.023L812.543 419.193" stroke="black" stroke-width="4.82" stroke-miterlimit="10"/>
<path d="M474.633 634.734L485.363 542.234C485.797 538.491 487.592 535.039 490.405 532.533C493.219 530.027 496.855 528.643 500.623 528.644H599.163C601.319 528.643 603.451 529.096 605.421 529.973C607.39 530.85 609.153 532.132 610.594 533.736C612.036 535.34 613.123 537.229 613.786 539.28C614.449 541.332 614.673 543.5 614.443 545.644L600.083 678.934C599.676 682.702 597.891 686.188 595.07 688.72C592.25 691.253 588.593 692.654 584.803 692.654H549.543" stroke="black" stroke-width="4.82" stroke-miterlimit="10"/>
<path d="M591.104 552.203C593.324 552.203 595.124 550.404 595.124 548.183C595.124 545.963 593.324 544.163 591.104 544.163C588.884 544.163 587.084 545.963 587.084 548.183C587.084 550.404 588.884 552.203 591.104 552.203Z" fill="black"/>
<path d="M524.742 656.195C535.142 658.535 537.222 658.575 547.312 660.075C553.672 661.025 568.212 661.815 568.472 651.945C568.712 643.275 558.982 638.185 552.112 635.415C544.183 632.399 535.886 630.459 527.442 629.645C523.962 629.245 520.465 628.971 516.952 628.825C492.602 627.825 464.512 633.715 447.742 652.765C408.892 696.845 357.232 725.185 357.232 725.185" stroke="black" stroke-width="4.82" stroke-miterlimit="10"/>
<path d="M552.594 660.562C557.594 662.682 566.064 667.202 562.594 675.862C561.014 679.862 558.144 681.282 554.204 681.862C545.694 683.092 536.564 681.282 528.204 679.532C525.114 678.882 519.634 677.692 516.584 676.852" stroke="black" stroke-width="4.82" stroke-miterlimit="10"/>
<path d="M543.704 682.062C543.704 682.062 552.794 681.952 550.604 690.402C546.994 704.402 518.944 698.062 505.824 695.122" stroke="black" stroke-width="4.82" stroke-miterlimit="10"/>
<path d="M544.264 507.652C587.004 509.522 652.134 522.052 711.194 573.142" stroke="black" stroke-width="4.82" stroke-miterlimit="10"/>
<path d="M867.704 813.452L359.494 814.212" stroke="black" stroke-width="4.82" stroke-miterlimit="10"/>
<path d="M639.893 628.722C639.893 628.722 649.893 721.792 639.893 813.452" stroke="black" stroke-width="4.82" stroke-miterlimit="10"/>
<path opacity="0.54" d="M1081.21 586.213L1169.1 361.003C1170.19 356.645 1170.28 352.097 1169.34 347.703C1168.41 343.309 1166.49 339.185 1163.73 335.644C1160.97 332.104 1157.43 329.239 1153.4 327.269C1149.36 325.298 1144.93 324.274 1140.43 324.273H791.284C783.445 324.272 775.833 326.91 769.676 331.763C763.519 336.615 759.175 343.4 757.344 351.023L661.104 576.183C660.059 580.528 660.014 585.054 660.97 589.42C661.927 593.786 663.862 597.878 666.628 601.389C669.394 604.899 672.921 607.737 676.942 609.688C680.963 611.639 685.375 612.653 689.844 612.653H1047.34C1055.13 612.653 1062.69 610.052 1068.83 605.261C1074.97 600.47 1079.33 593.766 1081.21 586.213Z" fill="white"/>
<path d="M1081.21 586.213L1169.1 361.003C1170.19 356.645 1170.28 352.097 1169.34 347.703C1168.41 343.309 1166.49 339.185 1163.73 335.644C1160.97 332.104 1157.43 329.239 1153.4 327.269C1149.36 325.298 1144.93 324.274 1140.43 324.273H791.284C783.445 324.272 775.833 326.91 769.676 331.763C763.519 336.615 759.175 343.4 757.344 351.023L661.104 576.183C660.059 580.528 660.014 585.054 660.97 589.42C661.927 593.786 663.862 597.878 666.628 601.389C669.394 604.899 672.921 607.737 676.942 609.688C680.963 611.639 685.375 612.653 689.844 612.653H1047.34C1055.13 612.653 1062.69 610.052 1068.83 605.261C1074.97 600.47 1079.33 593.766 1081.21 586.213Z" fill="#3FBDF1"/>
<path d="M1081.21 586.213L1169.1 361.003C1170.19 356.645 1170.28 352.097 1169.34 347.703C1168.41 343.309 1166.49 339.185 1163.73 335.644C1160.97 332.104 1157.43 329.239 1153.4 327.269C1149.36 325.298 1144.93 324.274 1140.43 324.273H791.284C783.445 324.272 775.833 326.91 769.676 331.763C763.519 336.615 759.175 343.4 757.344 351.023L661.104 576.183C660.059 580.528 660.014 585.054 660.97 589.42C661.927 593.786 663.862 597.878 666.628 601.389C669.394 604.899 672.921 607.737 676.942 609.688C680.963 611.639 685.375 612.653 689.844 612.653H1047.34C1055.13 612.653 1062.69 610.052 1068.83 605.261C1074.97 600.47 1079.33 593.766 1081.21 586.213Z" stroke="black" stroke-width="4.82" stroke-linecap="square" stroke-linejoin="round"/>
<path d="M1068.35 577.095L1149.44 369.325C1150.45 365.306 1150.52 361.111 1149.66 357.059C1148.81 353.006 1147.03 349.203 1144.49 345.937C1141.94 342.672 1138.68 340.029 1134.96 338.211C1131.23 336.393 1127.15 335.447 1123 335.445H800.874C793.641 335.443 786.619 337.877 780.938 342.354C775.258 346.832 771.251 353.091 769.564 360.125L680.774 567.845C679.811 571.854 679.769 576.029 680.653 580.057C681.536 584.084 683.321 587.859 685.874 591.097C688.427 594.335 691.681 596.953 695.391 598.752C699.101 600.551 703.171 601.485 707.294 601.485H1037.11C1044.29 601.481 1051.27 599.08 1056.93 594.661C1062.59 590.242 1066.61 584.06 1068.35 577.095Z" fill="#3FBDF1"/>
<path d="M824.114 373.643C828.384 367.233 835.374 364.383 839.724 367.273C844.074 370.163 844.134 377.713 839.864 384.123C839.201 385.108 838.452 386.032 837.624 386.883L869.274 453.703C874.274 450.333 879.874 449.503 883.854 452.153C886.424 453.863 887.854 456.773 888.304 460.153L909.924 452.853L928.834 446.533C930.834 445.843 932.944 445.183 935.004 444.533C935.781 442.211 936.86 440.002 938.214 437.963C944.214 428.963 954.024 424.963 960.124 428.963C966.224 432.963 966.304 443.433 960.474 452.383L996.474 501.613C1004.32 495.173 1013.57 493.183 1019.98 497.443C1028.7 503.243 1028.83 518.383 1020.27 531.253C1019.93 531.763 1019.54 532.183 1019.18 532.673L1043.18 565.463C1043.25 565.563 1043.34 565.683 1043.4 565.783C1044.01 566.698 1044.43 567.724 1044.64 568.802C1044.85 569.879 1044.85 570.988 1044.63 572.064C1044.41 573.141 1043.98 574.163 1043.37 575.074C1042.76 575.985 1041.97 576.766 1041.05 577.373C1040.14 577.979 1039.11 578.4 1038.03 578.61C1036.96 578.82 1035.85 578.816 1034.77 578.598C1033.7 578.38 1032.67 577.952 1031.76 577.338C1030.85 576.725 1030.07 575.938 1029.46 575.023L1008.15 542.873C1001.41 546.783 994.254 547.533 989.004 544.033C980.664 538.493 980.264 524.453 987.694 512.033L953.184 459.963C948.094 463.423 942.474 464.303 938.444 461.633C936.193 460.045 934.659 457.634 934.174 454.923C933.314 455.153 932.464 455.403 931.604 455.643L912.374 460.893L887.764 467.523C887.01 470.473 885.766 473.275 884.084 475.813C878.084 484.813 868.284 488.813 862.174 484.763C856.064 480.713 855.974 470.103 861.964 461.093C862.857 459.786 863.861 458.558 864.964 457.423L834.834 389.293C831.204 391.763 827.194 392.403 824.324 390.493C819.914 387.613 819.844 380.063 824.114 373.643Z" fill="white"/>
<path d="M1053.31 377.332H1100C1102.14 377.332 1104.23 376.709 1106.02 375.541C1107.8 374.372 1109.21 372.708 1110.07 370.752C1110.35 370.152 1110.49 369.502 1110.5 368.842C1110.49 367.567 1109.98 366.348 1109.07 365.449C1108.17 364.55 1106.95 364.045 1105.67 364.042H1056C1058.37 367.992 1057.19 373.452 1053.31 377.332Z" fill="#D7E8F0"/>
<path d="M1023.12 372.542C1023.13 373.814 1023.63 375.032 1024.53 375.93C1025.43 376.828 1026.65 377.332 1027.92 377.332H1053.31C1057.19 373.452 1058.37 367.992 1056.04 364.042H1033.62C1031.49 364.041 1029.4 364.661 1027.61 365.825C1025.83 366.99 1024.41 368.65 1023.55 370.602C1023.28 371.214 1023.14 371.873 1023.12 372.542Z" fill="#3FBDF1"/>
<path d="M1034.8 377.332C1034.94 377.589 1035.09 377.833 1035.26 378.062C1038.59 382.612 1045.81 383.062 1051.43 378.942C1052.1 378.452 1052.73 377.914 1053.31 377.332C1057.19 373.452 1058.37 367.992 1056.04 364.042C1055.91 363.789 1055.76 363.548 1055.58 363.322C1052.28 358.742 1045.06 358.322 1039.44 362.412C1038.77 362.91 1038.13 363.455 1037.53 364.042C1033.68 367.932 1032.5 373.362 1034.8 377.332Z" fill="white"/>
<path d="M1011.38 401.845C1011.39 403.119 1011.91 404.337 1012.81 405.234C1013.72 406.131 1014.94 406.635 1016.21 406.635H1065.21C1062.84 402.635 1064.02 397.235 1067.91 393.355H1021.91C1019.78 393.355 1017.69 393.978 1015.9 395.146C1014.11 396.315 1012.7 397.979 1011.84 399.935C1011.56 400.534 1011.41 401.184 1011.38 401.845Z" fill="#3FBDF1"/>
<path d="M1065.2 406.635H1088.2C1090.34 406.637 1092.42 406.019 1094.21 404.856C1096 403.693 1097.41 402.035 1098.27 400.085C1098.55 399.475 1098.7 398.814 1098.7 398.145C1098.7 397.515 1098.58 396.892 1098.34 396.31C1098.1 395.728 1097.75 395.2 1097.3 394.755C1096.86 394.31 1096.33 393.957 1095.75 393.717C1095.17 393.476 1094.54 393.353 1093.91 393.355H1067.9C1064 397.235 1062.83 402.665 1065.2 406.635Z" fill="#D7E8F0"/>
<path d="M1065.2 406.634C1065.31 406.896 1065.45 407.142 1065.62 407.364C1068.93 411.944 1076.15 412.364 1081.76 408.274C1082.44 407.78 1083.08 407.232 1083.67 406.634C1087.52 402.754 1088.67 397.324 1086.4 393.354C1086.27 393.097 1086.12 392.853 1085.95 392.624C1082.61 388.074 1075.39 387.624 1069.78 391.744C1069.11 392.229 1068.48 392.767 1067.9 393.354C1064 397.234 1062.83 402.664 1065.2 406.634Z" fill="white"/>
<path d="M1048.88 435.735H1078.21C1080.35 435.736 1082.43 435.116 1084.22 433.951C1086.01 432.787 1087.42 431.127 1088.28 429.175C1088.56 428.575 1088.71 427.924 1088.71 427.265C1088.71 425.986 1088.2 424.762 1087.29 423.859C1086.39 422.956 1085.16 422.447 1083.88 422.445H1051.61C1053.91 426.415 1052.73 431.845 1048.88 435.735Z" fill="#3FBDF1"/>
<path d="M1001.34 430.965C1001.35 432.233 1001.86 433.448 1002.76 434.342C1003.66 435.237 1004.87 435.737 1006.14 435.735H1048.88C1052.73 431.845 1053.88 426.415 1051.61 422.445H1011.84C1009.71 422.445 1007.62 423.068 1005.83 424.236C1004.04 425.405 1002.63 427.068 1001.77 429.025C1001.5 429.635 1001.35 430.295 1001.34 430.965Z" fill="#D7E8F0"/>
<path d="M1030.37 435.733C1030.51 435.986 1030.66 436.227 1030.83 436.453C1034.13 441.033 1041.35 441.453 1046.97 437.363C1047.65 436.865 1048.29 436.32 1048.88 435.733C1052.73 431.843 1053.88 426.413 1051.61 422.443C1051.48 422.186 1051.33 421.942 1051.15 421.713C1047.82 417.163 1040.6 416.773 1034.98 420.833C1034.32 421.323 1033.69 421.861 1033.1 422.443C1029.22 426.323 1028 431.783 1030.37 435.733Z" fill="white"/>
<path d="M859.264 572.981H888.594C890.728 572.983 892.816 572.363 894.604 571.198C896.392 570.033 897.802 568.374 898.664 566.421C898.999 565.691 899.143 564.888 899.083 564.087C899.024 563.286 898.762 562.514 898.322 561.841C897.883 561.169 897.28 560.619 896.57 560.243C895.86 559.867 895.067 559.677 894.264 559.691H862.004C864.294 563.661 863.114 569.091 859.264 572.981Z" fill="#3FBDF1"/>
<path d="M742.824 568.215C742.825 568.842 742.95 569.464 743.192 570.043C743.433 570.623 743.786 571.149 744.231 571.592C744.676 572.035 745.203 572.386 745.784 572.625C746.364 572.864 746.986 572.986 747.614 572.985H859.264C863.114 569.095 864.264 563.665 861.994 559.695H753.324C751.188 559.695 749.098 560.318 747.31 561.486C745.521 562.655 744.112 564.318 743.254 566.275C742.979 566.885 742.833 567.545 742.824 568.215Z" fill="#D7E8F0"/>
<path d="M840.754 572.983C840.886 573.236 841.04 573.477 841.214 573.703C844.514 578.293 851.734 578.703 857.354 574.613C858.028 574.115 858.666 573.57 859.264 572.983C863.114 569.093 864.264 563.663 861.994 559.693C861.863 559.436 861.709 559.192 861.534 558.963C858.194 554.413 850.974 554.023 845.364 558.083C844.699 558.573 844.071 559.111 843.484 559.693C839.604 563.573 838.424 569.033 840.754 572.983Z" fill="white"/>
<path d="M315.203 717.023C311.479 715.554 307.878 713.792 304.433 711.753C281.303 697.903 266.233 666.843 270.823 640.103C273.113 626.833 281.753 617.583 292.873 610.603C300.643 605.783 309.003 601.843 315.943 595.893C339.043 576.163 320.563 545.473 333.353 521.893C348.903 493.293 373.903 476.523 406.843 477.613C422.653 478.133 443.183 481.763 456.093 470.193C462.873 464.193 464.293 454.413 466.863 446.253C469.76 437.051 472.176 427.705 474.103 418.253C475.834 409.292 479.095 400.697 483.743 392.843C488.773 384.323 495.868 377.208 504.373 372.153C520.373 362.923 542.683 362.073 558.763 371.563C561.052 372.924 563.22 374.48 565.243 376.213C580.123 388.973 587.243 410.463 586.903 429.623" stroke="black" stroke-width="4.82" stroke-miterlimit="10"/>
<path d="M556.684 406.171C557.514 411.811 560.944 417.011 567.034 418.571C573.914 420.321 577.564 427.021 579.504 433.751C582.261 443.625 581.555 454.144 577.504 463.561C573.744 472.421 567.044 482.561 555.714 484.151C534.984 487.151 524.664 478.371 524.664 478.371" stroke="black" stroke-width="4.82" stroke-miterlimit="10"/>
<path d="M539.414 436.303C541.38 436.303 542.974 434.709 542.974 432.743C542.974 430.777 541.38 429.183 539.414 429.183C537.448 429.183 535.854 430.777 535.854 432.743C535.854 434.709 537.448 436.303 539.414 436.303Z" fill="black"/>
<path d="M570.724 433.943C572.69 433.943 574.284 432.35 574.284 430.383C574.284 428.417 572.69 426.823 570.724 426.823C568.758 426.823 567.164 428.417 567.164 430.383C567.164 432.35 568.758 433.943 570.724 433.943Z" fill="black"/>
<path d="M531.153 699.091C536.333 702.271 532.153 707.511 528.393 709.281C521.933 712.281 513.583 712.811 506.543 713.651C453.013 719.951 435.143 793.431 401.543 807.091C367.943 820.751 277.773 830.731 321.753 677.951C355.613 560.371 437.253 528.301 471.383 515.641C475.057 514.291 478.643 512.714 482.123 510.921C501.793 500.701 511.003 489.761 513.893 475.651C513.893 475.651 513.893 475.651 513.893 475.591C516.393 463.481 514.713 452.361 512.263 445.931C510.858 442.535 509.767 439.017 509.003 435.421C507.183 425.191 515.083 426.631 537.263 427.851C547.443 428.451 553.203 423.851 555.683 417.991C555.926 417.483 556.124 416.954 556.273 416.411C557.316 413.093 557.441 409.554 556.633 406.171" stroke="black" stroke-width="4.82" stroke-miterlimit="10"/>
<path d="M554.753 433.605C554.753 433.605 558.493 447.275 558.113 449.295C557.733 451.315 552.943 449.755 552.943 449.755" stroke="black" stroke-width="4.82" stroke-miterlimit="10"/>
<path d="M552.173 462.273C545.003 466.133 536.713 463.703 533.473 457.273" stroke="black" stroke-width="4.82" stroke-miterlimit="10"/>
<path d="M545.131 447.289C551.809 440.984 552.235 430.589 546.082 424.071C539.929 417.553 529.527 417.38 522.848 423.685C516.17 429.99 515.744 440.385 521.897 446.903C528.05 453.421 538.452 453.594 545.131 447.289Z" stroke="black" stroke-width="4.82" stroke-miterlimit="10"/>
<path d="M586.66 443.5C593.339 437.195 593.765 426.8 587.612 420.282C581.459 413.764 571.057 413.591 564.378 419.896C557.699 426.201 557.273 436.596 563.426 443.114C569.579 449.632 579.982 449.805 586.66 443.5Z" stroke="black" stroke-width="4.82" stroke-miterlimit="10"/>
<path d="M575.863 420.293C578.673 420.275 581.384 421.333 583.439 423.25C585.494 425.167 586.737 427.798 586.913 430.603C587.092 433.658 586.079 436.662 584.087 438.985C582.095 441.307 579.279 442.766 576.233 443.053C575.883 443.053 575.523 443.053 575.173 443.053C572.379 443.073 569.682 442.029 567.629 440.133C565.577 438.236 564.324 435.63 564.123 432.843C563.93 429.78 564.937 426.763 566.931 424.43C568.924 422.096 571.748 420.631 574.803 420.343C575.153 420.343 575.513 420.343 575.863 420.343V420.293ZM575.863 417.933C575.443 417.933 575.013 417.933 574.583 417.993C570.913 418.342 567.522 420.099 565.122 422.897C562.722 425.694 561.5 429.313 561.713 432.993C561.937 436.405 563.454 439.604 565.955 441.936C568.457 444.268 571.753 445.558 575.173 445.543C575.593 445.543 576.023 445.543 576.453 445.483C580.124 445.14 583.517 443.383 585.916 440.584C588.316 437.785 589.534 434.163 589.313 430.483C589.113 427.056 587.608 423.835 585.106 421.484C582.604 419.133 579.296 417.83 575.863 417.843V417.933Z" fill="white"/>
<path d="M550.393 434.002L559.113 433.202" stroke="black" stroke-width="4.82" stroke-miterlimit="10"/>
<path d="M534.344 423.764C537.239 423.736 540.035 424.821 542.153 426.796C544.271 428.77 545.55 431.483 545.724 434.374C545.911 437.521 544.869 440.618 542.817 443.012C540.765 445.406 537.863 446.909 534.724 447.204C534.364 447.204 533.994 447.204 533.634 447.204C530.736 447.23 527.939 446.143 525.82 444.166C523.701 442.19 522.421 439.476 522.244 436.584C522.059 433.438 523.102 430.344 525.154 427.952C527.206 425.561 530.107 424.059 533.244 423.764C533.609 423.727 533.977 423.711 534.344 423.714V423.764ZM534.344 421.304C533.904 421.304 533.464 421.324 533.024 421.364C529.242 421.715 525.747 423.531 523.285 426.423C520.822 429.315 519.588 433.054 519.844 436.844C520.073 440.34 521.627 443.618 524.19 446.007C526.752 448.397 530.13 449.719 533.634 449.704C534.064 449.704 534.504 449.704 534.944 449.644C538.708 449.29 542.188 447.487 544.647 444.615C547.107 441.743 548.353 438.028 548.124 434.254C547.897 430.758 546.345 427.481 543.784 425.091C541.223 422.701 537.847 421.379 534.344 421.394V421.304Z" fill="white"/>
<path d="M585.082 441.825C590.808 436.419 591.17 427.501 585.889 421.907C580.608 416.312 571.684 416.16 565.957 421.566C560.23 426.972 559.869 435.89 565.15 441.484C570.431 447.079 579.355 447.231 585.082 441.825Z" fill="#3FBDF1"/>
<path d="M546.553 446.201C552.33 440.74 552.692 431.741 547.361 426.101C542.029 420.46 533.024 420.315 527.247 425.776C521.469 431.236 521.108 440.236 526.439 445.876C531.77 451.516 540.775 451.662 546.553 446.201Z" fill="#3FBDF1"/>
<path d="M498.734 528.762C494.334 524.172 490.514 517.422 488.004 507.652" stroke="black" stroke-width="4.82" stroke-miterlimit="10"/>
<path d="M539.414 528.644L544.264 507.654L549.534 485.034" stroke="black" stroke-width="4.82" stroke-miterlimit="10"/>
<path d="M559.238 612.22C561.102 603.074 556.059 594.324 547.974 592.676C539.889 591.028 531.824 597.107 529.96 606.252C528.096 615.398 533.139 624.148 541.224 625.795C549.309 627.443 557.374 621.365 559.238 612.22Z" fill="#D7E8F0"/>
<path d="M868.574 761.023L860.374 806.843C860.144 808.129 859.469 809.294 858.467 810.133C857.466 810.972 856.201 811.432 854.894 811.433H812.004C810.684 811.434 809.406 810.966 808.398 810.112C807.391 809.259 806.72 808.075 806.504 806.773L799.004 761.023H868.574Z" stroke="#CCDDE2" stroke-width="4.82" stroke-miterlimit="10"/>
<path d="M876.373 755.901C876.258 757.295 875.623 758.594 874.595 759.542C873.568 760.491 872.221 761.018 870.823 761.021H796.823C795.443 761.021 794.113 760.51 793.088 759.587C792.063 758.663 791.416 757.393 791.273 756.021C791.199 755.248 791.288 754.468 791.533 753.731C791.778 752.994 792.175 752.317 792.698 751.743C793.22 751.168 793.857 750.709 794.568 750.396C795.278 750.082 796.046 749.92 796.823 749.921H870.823C871.588 749.922 872.346 750.08 873.047 750.387C873.749 750.693 874.38 751.141 874.901 751.702C875.421 752.263 875.821 752.926 876.074 753.648C876.328 754.371 876.429 755.138 876.373 755.901Z" stroke="#CCDDE2" stroke-width="4.82" stroke-miterlimit="10"/>
<path d="M836.154 749.844C836.154 747.494 842.154 718.224 837.154 692.274C834.434 678.034 828.434 664.804 816.354 657.554" stroke="#CCDDE2" stroke-width="4.82" stroke-miterlimit="10"/>
<path d="M837.174 692.314C837.174 692.314 838.544 672.594 855.584 671.234" stroke="#CCDDE2" stroke-width="4.82" stroke-miterlimit="10"/>
<path d="M839.004 722.404C843.852 719.008 849.691 717.319 855.604 717.604" stroke="#CCDDE2" stroke-width="4.82" stroke-miterlimit="10"/>
<path d="M839.004 708.393C839.004 708.393 826.624 693.733 806.844 705.333" stroke="#CCDDE2" stroke-width="4.82" stroke-miterlimit="10"/>
<path d="M830.274 702.492C830.274 702.492 802.394 677.032 796.934 711.492C796.934 711.492 804.784 716.602 816.374 711.492C827.964 706.382 830.274 702.492 830.274 702.492Z" stroke="#CCDDE2" stroke-width="4.82" stroke-miterlimit="10"/>
<path d="M843.304 677.234C843.304 677.234 842.304 665.774 855.584 662.024C868.864 658.274 876.394 673.964 876.394 673.964C876.394 673.964 866.144 685.294 843.304 677.234Z" stroke="#CCDDE2" stroke-width="4.82" stroke-miterlimit="10"/>
<path d="M846.384 717.594C846.384 717.594 845.924 706.004 861.384 708.394C876.844 710.784 879.384 723.974 879.384 723.974C879.384 723.974 854.064 733.254 846.384 718.814" stroke="#CCDDE2" stroke-width="4.82" stroke-miterlimit="10"/>
<path d="M827.753 668.314C827.753 669.134 816.133 667.314 815.393 667.054C809.763 665.374 805.763 661.474 803.133 656.314C802.323 654.714 797.633 645.744 798.963 644.184C799.003 644.184 826.623 635.284 827.753 668.314Z" stroke="#CCDDE2" stroke-width="4.82" stroke-miterlimit="10"/>
<path d="M1100.36 671.421C1091.64 697.427 1077.21 721.148 1058.11 740.841C1022 778.621 967.733 805.681 899.113 812.011V671.421H1100.36Z" stroke="#CCDDE2" stroke-width="4.82" stroke-miterlimit="10"/>
<path d="M1058.11 740.843C1022 778.623 967.733 805.683 899.113 812.013V740.843H1058.11Z" stroke="#CCDDE2" stroke-width="4.82" stroke-miterlimit="10"/>
<path d="M1037.22 707.517C1037.22 701.909 1032.68 697.363 1027.07 697.363C1021.46 697.363 1016.91 701.909 1016.91 707.517C1016.91 713.126 1021.46 717.673 1027.07 717.673C1032.68 717.673 1037.22 713.126 1037.22 707.517Z" stroke="#CCDDE2" stroke-width="4.82" stroke-miterlimit="10"/>
</svg>
