<svg width="74" height="51" viewBox="0 0 74 51" fill="none" xmlns="http://www.w3.org/2000/svg">
<mask id="mask0_246_2" style="mask-type:luminance" maskUnits="userSpaceOnUse" x="0" y="0" width="74" height="51">
<path d="M74 0H0V50.6164H74V0Z" fill="white"/>
</mask>
<g mask="url(#mask0_246_2)">
<path d="M73.5535 2.96635C73.5458 2.97407 73.538 2.97407 73.538 2.99022L73.5219 3.00567C73.498 3.03025 73.4896 3.03797 73.498 3.03797L50.5397 27.1611L45.1322 32.8446C45.1225 32.8374 45.1115 32.8322 45.0999 32.8291L45.0044 32.7814L22.8926 22.9144L23.6988 22.5394L27.4265 20.7914L32.6233 18.3567C32.6325 18.3489 32.6433 18.3434 32.6549 18.3405H32.6633L71.4432 0.180417C71.8133 0.00657369 72.2325 -0.0347949 72.63 0.0632499C73.0268 0.161295 73.3786 0.392817 73.6258 0.719057C73.873 1.04531 74.0008 1.4465 73.9875 1.85556C73.9742 2.26462 73.8211 2.65675 73.5535 2.96635Z" fill="url(#paint0_linear_246_2)"/>
<g style="mix-blend-mode:multiply" opacity="0.2">
<path d="M0.296846 15.0283H0.305041C0.296841 15.0358 0.296845 15.0434 0.289329 15.0516C0.288747 15.0473 0.289122 15.0431 0.290423 15.039C0.291725 15.035 0.293921 15.0313 0.296846 15.0283Z" fill="black"/>
</g>
<g style="mix-blend-mode:multiply" opacity="0.2">
<path d="M45.1363 32.8451C45.1363 32.8451 44.4095 32.5817 43.1482 32.1028C41.8841 31.6 40.0827 30.93 37.9359 30.0515C35.7883 29.1891 33.2897 28.1595 30.6322 27.0261C27.9748 25.8926 25.1482 24.6475 22.3222 23.4023C20.9177 22.7633 19.5131 22.1326 18.1318 21.502C16.7504 20.8875 15.4013 20.2379 14.0846 19.6346C11.4665 18.4127 9.03171 17.2469 6.95579 16.2181C5.91011 15.7145 4.96835 15.2349 4.12211 14.8051C3.70707 14.5944 3.30817 14.3893 2.95634 14.2222C2.64052 14.0735 2.2904 14.0129 1.94296 14.0466C1.43933 14.0924 0.967447 14.3125 0.608633 14.6688C0.577107 14.6988 0.54777 14.7309 0.520849 14.7651C0.496269 14.7889 0.472398 14.8205 0.450628 14.8444C0.427289 14.8659 0.405901 14.8894 0.386719 14.9146C0.666376 14.4629 1.10215 14.1297 1.61131 13.9781C2.12048 13.8265 2.66758 13.8671 3.14876 14.0923L22.8981 22.9128L23.7043 22.5378C26.2325 23.679 28.7572 24.8209 31.1203 25.9305C33.7384 27.1518 36.1732 28.3253 38.2561 29.3471C40.3391 30.3689 42.0484 31.2544 43.2535 31.8612C44.1552 32.3247 44.762 32.6435 45.0092 32.7798L45.1047 32.8275C45.1163 32.8313 45.127 32.8373 45.1363 32.8451Z" fill="black"/>
</g>
<path d="M45.1346 32.8447L36.4264 42.0009C36.4203 42.0082 36.4151 42.0162 36.411 42.0248C36.411 42.0248 36.4025 42.0171 36.4025 42.0248L29.4578 49.3285C29.3573 49.4355 29.2508 49.5368 29.1389 49.6318C28.702 50.0019 28.1933 50.2777 27.6447 50.4416C27.0961 50.6056 26.5194 50.6543 25.9511 50.5845C25.3827 50.5148 24.835 50.3282 24.3423 50.0366C23.8496 49.7448 23.4226 49.3543 23.0881 48.8895L9.23788 29.6514V29.6437C9.22173 29.6353 9.22173 29.6276 9.22173 29.6276L9.05459 29.3958L0.433464 17.4298C0.183923 17.0987 0.0353344 16.7026 0.0055584 16.2891C-0.0242176 15.8756 0.0660882 15.4623 0.265622 15.0989C0.273036 15.0895 0.278522 15.0788 0.28177 15.0673L0.284899 15.0667L0.287503 15.0648L0.289121 15.0621L0.289496 15.0589V15.0512C0.288899 15.0468 0.289283 15.0425 0.290621 15.0383C0.291959 15.0342 0.294216 15.0304 0.297223 15.0273H0.305645C0.321095 14.995 0.353404 14.9634 0.385007 14.9156C0.664664 14.4639 1.10044 14.1306 1.6096 13.979C2.11877 13.8275 2.66587 13.8681 3.14705 14.0933L22.8964 22.9138L45.0082 32.7808L45.1037 32.8285C45.1149 32.8319 45.1254 32.8374 45.1346 32.8447Z" fill="url(#paint1_linear_246_2)"/>
<g style="mix-blend-mode:multiply" opacity="0.2">
<path d="M50.5377 27.1611L45.1302 32.8446C45.1205 32.8375 45.1096 32.8322 45.0979 32.8292L22.8906 22.9145L23.6968 22.5395L27.4245 20.7915L50.5377 27.1611Z" fill="black"/>
</g>
<g style="mix-blend-mode:screen" opacity="0.5">
<path d="M0.296828 15.0283H0.305023C0.296823 15.0434 0.28931 15.0516 0.28931 15.0591C0.288198 15.0483 0.290854 15.0374 0.296828 15.0283Z" fill="white"/>
</g>
<g style="mix-blend-mode:screen" opacity="0.5">
<path d="M45.1363 32.8451C45.1363 32.8451 44.4095 32.5817 43.1482 32.1028C41.8841 31.6 40.0827 30.93 37.9359 30.0515C35.7883 29.1891 33.2897 28.1595 30.6322 27.0261C27.9748 25.8926 25.1482 24.6475 22.3222 23.4023C20.9177 22.7633 19.5131 22.1326 18.1318 21.502C16.7504 20.8875 15.4013 20.2379 14.0846 19.6346C11.4665 18.4127 9.03171 17.2469 6.95579 16.2181C5.91011 15.7145 4.96835 15.2349 4.12211 14.8051C3.70707 14.5944 3.30817 14.3893 2.95634 14.2222C2.64052 14.0735 2.2904 14.0129 1.94296 14.0466C1.43933 14.0924 0.967447 14.3125 0.608633 14.6688C0.577107 14.6988 0.54777 14.7309 0.520849 14.7651C0.495206 14.7894 0.471716 14.816 0.450628 14.8444C0.427289 14.8659 0.405901 14.8894 0.386719 14.9146C0.666376 14.4629 1.10215 14.1297 1.61131 13.9781C2.12048 13.8265 2.66758 13.8671 3.14876 14.0923L22.8981 22.9128L45.0099 32.7798L45.1054 32.8275C45.1167 32.8314 45.1272 32.8374 45.1363 32.8451Z" fill="white"/>
</g>
<g style="mix-blend-mode:multiply" opacity="0.2">
<path d="M36.401 42.0247L29.4562 49.3284C29.3557 49.4354 29.2492 49.5367 29.1374 49.6318C28.7005 50.0019 28.1918 50.2776 27.6431 50.4416C27.0945 50.6055 26.5179 50.6542 25.9495 50.5845C25.3813 50.5147 24.8335 50.3281 24.3408 50.0365C23.848 49.7448 23.421 49.3542 23.0866 48.8895L9.23633 29.6514C9.33254 29.7553 9.73143 30.2258 10.36 30.9857C11.0622 31.8635 12.1002 33.1009 13.2899 34.6178C14.4795 36.1348 15.8602 37.9143 17.3048 39.8463C18.7578 41.7621 20.2662 43.8492 21.7832 45.9209L22.9005 47.494L23.4511 48.2757L23.595 48.4674C23.6315 48.5234 23.6716 48.5768 23.7151 48.6275C23.7993 48.7417 23.8933 48.8484 23.996 48.9463C24.364 49.3185 24.8094 49.6051 25.3006 49.7858C25.7917 49.9665 26.3167 50.0369 26.8381 49.992C27.348 49.9501 27.8433 49.8005 28.2911 49.5531C28.5055 49.4351 28.7061 49.2938 28.8895 49.1317L29.0496 48.9962L29.1128 48.94L29.183 48.86L29.478 48.5727C30.2603 47.7904 31.011 47.0643 31.7133 46.3957C33.0947 45.0543 34.2921 43.9771 35.106 43.1947C35.8357 42.5304 36.2978 42.109 36.401 42.0247Z" fill="black"/>
</g>
<g style="mix-blend-mode:screen" opacity="0.5">
<path d="M73.7688 2.58294C73.8664 2.36222 73.9149 2.1225 73.9093 1.88099C73.9037 1.63949 73.8447 1.40219 73.7372 1.18613C73.594 0.864273 73.3468 0.599552 73.0357 0.434116C72.7253 0.26868 72.3678 0.212025 72.0209 0.273164C71.5841 0.417662 71.1662 0.61333 70.7757 0.856064C70.3207 1.08711 69.8414 1.335 69.3463 1.58993C67.3504 2.62016 65.0118 3.79368 62.497 5.03109C61.2329 5.63785 59.9351 6.29516 58.6015 6.91457C57.2679 7.53398 55.928 8.18428 54.5789 8.82265C51.8646 10.0867 49.1503 11.3368 46.5877 12.4787C44.0251 13.6206 41.6311 14.6656 39.565 15.5357C37.4975 16.422 35.7572 17.1004 34.5437 17.6032C33.498 18.0245 32.8274 18.2739 32.668 18.3378L71.4478 0.177665C71.8179 0.00553452 72.2358 -0.0345104 72.6326 0.0642054C73.0286 0.162921 73.3791 0.394439 73.6256 0.720188C73.8721 1.04594 73.9992 1.44625 73.9858 1.85446C73.9732 2.26266 73.8208 2.65411 73.5546 2.96359C73.6396 2.84506 73.7112 2.71738 73.7688 2.58294Z" fill="white"/>
</g>
<g style="mix-blend-mode:screen" opacity="0.3">
<path d="M71.9338 2.36764L69.0203 5.42534C66.921 7.62858 64.8243 9.83168 62.7301 12.0344L33.7852 19.5783C40.5705 16.4012 47.3592 13.2241 54.1511 10.047C59.5549 7.51882 64.9624 4.98573 70.3733 2.44771C70.8923 2.20823 71.4113 1.96033 71.9303 1.72085C72.5658 1.41747 72.2042 2.0797 71.9338 2.36764Z" fill="white"/>
</g>
<g style="mix-blend-mode:screen" opacity="0.3">
<path d="M42.4305 33.3802C41.105 34.7619 39.7852 36.1481 38.4711 37.5391C38.1038 37.9226 37.7372 38.3116 37.3699 38.6965L2.26953 15.5312C2.67332 15.6032 3.06026 15.7494 3.41073 15.9624C9.09495 18.5005 14.7813 21.039 20.4697 23.5779C27.7906 26.8496 35.1109 30.1171 42.4305 33.3802Z" fill="white"/>
</g>
</g>
<defs>
<linearGradient id="paint0_linear_246_2" x1="9.04563" y1="16.4279" x2="73.9882" y2="16.4279" gradientUnits="userSpaceOnUse">
<stop stop-color="#F8007A"/>
<stop offset="1" stop-color="#FC7300"/>
</linearGradient>
<linearGradient id="paint1_linear_246_2" x1="39.9441" y1="25.6781" x2="8.11839" y2="38.0794" gradientUnits="userSpaceOnUse">
<stop stop-color="#FCC400"/>
<stop offset="0.162" stop-color="#FBC000"/>
<stop offset="0.307" stop-color="#FBB500"/>
<stop offset="0.446" stop-color="#FBA300"/>
<stop offset="0.581" stop-color="#FA8900"/>
<stop offset="0.712" stop-color="#FA6800"/>
<stop offset="0.842" stop-color="#F93F00"/>
<stop offset="0.967" stop-color="#F81000"/>
<stop offset="1" stop-color="#F80300"/>
</linearGradient>
</defs>
</svg>
